<svg width="386.47999267578126px" height="192.28001708984374px" xmlns="http://www.w3.org/2000/svg" viewBox="56.76000366210937 -21.14000854492187 386.47999267578126 192.28001708984374" style="background: rgba(0, 0, 0, 0) none repeat scroll 0% 0%;" preserveAspectRatio="xMidYMid"><defs><filter id="editing-extrusion" x="-100%" y="-100%" width="300%" height="300%"><feFlood result="color1" flood-color="#444"></feFlood><feConvolveMatrix order="8,8" divisor="1" kernelMatrix="1 0 0 0 0 0 0 0 0 1 0 0 0 0 0 0 0 0 1 0 0 0 0 0 0 0 0 1 0 0 0 0 0 0 0 0 1 0 0 0 0 0 0 0 0 1 0 0 0 0 0 0 0 0 1 0 0 0 0 0 0 0 0 1" in="SourceAlpha" result="extrude"></feConvolveMatrix><feComposite in="color1" in2="extrude" result="comp-extrude" operator="in"></feComposite><feOffset dx="4" dy="4" in="comp-extrude" result="offset-extrude"></feOffset><feMerge><feMergeNode in="offset-extrude"></feMergeNode><feMergeNode in="SourceGraphic"></feMergeNode></feMerge></filter></defs><g filter="url(#editing-extrusion)"><g transform="translate(114.54999685287476, 114.29999732971191)"><path d="M62-25L62-25L62-4.90L62-4.90Q50.10 2 37.80 2L37.80 2L37.80 2Q23.30 2 13.85-7.80L13.85-7.80L13.85-7.80Q4.40-17.60 4.40-35L4.40-35L4.40-35Q4.40-52 14.95-62L14.95-62L14.95-62Q25.50-72 42.40-72L42.40-72L42.40-72Q54.10-72 63-67.70L63-67.70L63-67.70Q63-60.20 59.90-50.20L59.90-50.20L59.90-50.20Q59.50-50.10 58.60-50.10L58.60-50.10L58.60-50.10Q56.80-50.10 55.50-50.70L55.50-50.70L54.40-64.30L54.40-64.30Q47.80-66.80 41.70-66.80L41.70-66.80L41.70-66.80Q30.40-66.80 23.25-57.95L23.25-57.95L23.25-57.95Q16.10-49.10 16-35L16-35L16-35Q16-20.50 22.25-11.90L22.25-11.90L22.25-11.90Q28.50-3.30 39.70-3.30L39.70-3.30L39.70-3.30Q45.50-3.20 51.50-5.80L51.50-5.80L51.50-25L43.80-27L43.80-27Q43.70-27.40 43.70-28.10L43.70-28.10L43.70-28.10Q43.70-29.30 44.30-30.50L44.30-30.50L44.30-30.50Q53.30-30 56.90-30L56.90-30L56.90-30Q60.20-30 69.20-30.50L69.20-30.50L69.20-30.50Q69.80-29.30 69.80-28.10L69.80-28.10L69.80-28.10Q69.80-27.90 69.75-27.60L69.75-27.60L69.75-27.60Q69.70-27.30 69.70-27L69.70-27L69.70-27Q64.90-26.50 62-25ZM108-25.40L108-25.40L117.70-56.40L114.60-65L106.90-67L106.90-67Q106.60-68.90 107.40-70.50L107.40-70.50L107.40-70.50Q116.40-70 121.10-70L121.10-70L121.10-70Q125.50-70 134.80-70.50L134.80-70.50L134.80-70.50Q135.10-68.60 134.60-67L134.60-67L134.60-67Q134-66.90 132.65-66.70L132.65-66.70L132.65-66.70Q131.30-66.50 130.50-66.35L130.50-66.35L130.50-66.35Q129.70-66.20 128.55-65.85L128.55-65.85L128.55-65.85Q127.40-65.50 126.50-65L126.50-65L138.90-26.20L138.90-26.20Q142.40-15.30 143.20-10.60L143.20-10.60L143.40-10.60L143.40-10.60Q144.50-16.80 147.10-26.20L147.10-26.20L157.30-65L148.60-67L148.60-67Q148.30-68.90 149.10-70.50L149.10-70.50L149.10-70.50Q157.10-70 160.40-70L160.40-70L160.40-70Q163.90-70 171.10-70.50L171.10-70.50L171.10-70.50Q171.40-68.60 170.90-67L170.90-67L170.90-67Q165.30-66 162.70-65L162.70-65L144.20 2L144.20 2Q142.50 2.80 139.10 3L139.10 3L120.50-48.70L104.20 2L104.20 2Q102.70 2.80 99.50 3L99.50 3L77.40-65L69.70-67L69.70-67Q69.40-68.90 70.20-70.50L70.20-70.50L70.20-70.50Q79.20-70 83.90-70L83.90-70L83.90-70Q88.30-70 97.60-70.50L97.60-70.50L97.60-70.50Q97.90-68.50 97.40-67L97.40-67L97.40-67Q92.70-66.50 89.00-65L89.00-65L99.50-25.70L99.50-25.70Q102.90-13.40 103.50-9.50L103.50-9.50L103.70-9.50L103.70-9.50Q104.70-15.90 108-25.40ZM208.20-26.70L178.00-27L178.00-25L178.00-25Q178.00-15 182.05-9.40L182.05-9.40L182.05-9.40Q186.10-3.80 193.10-3.80L193.10-3.80L193.10-3.80Q197.60-3.80 200.30-4.65L200.30-4.65L200.30-4.65Q203.00-5.50 207.10-8.30L207.10-8.30L207.10-8.30Q208.70-7.60 208.90-5.90L208.90-5.90L208.90-5.90Q202.00 1.60 192.80 1.70L192.80 1.70L192.80 1.70Q181.30 1.70 174.40-5.50L174.40-5.50L174.40-5.50Q167.50-12.70 167.40-25L167.40-25L167.40-25Q167.50-37.60 174.65-44.65L174.65-44.65L174.65-44.65Q181.80-51.70 192.30-51.70L192.30-51.70L192.30-51.70Q200.80-51.70 205.25-45.95L205.25-45.95L205.25-45.95Q209.70-40.20 209.70-30.40L209.70-30.40L209.70-30.40Q209.70-28.70 209.60-27.80L209.60-27.80L208.20-26.70ZM192.20-47.40L192.20-47.40L192.20-47.40Q187.50-47.40 183.55-43.15L183.55-43.15L183.55-43.15Q179.60-38.90 178.40-31.10L178.40-31.10L200.20-32.30L200.20-32.30Q200.20-40.30 198.45-43.85L198.45-43.85L198.45-43.85Q196.70-47.40 192.20-47.40ZM230.00-74.50L230.00-74.50L230.00-45.50L230.50-45L230.50-45Q237.30-51 245.50-51L245.50-51L245.50-51Q255.30-50.90 260.90-43.85L260.90-43.85L260.90-43.85Q266.50-36.80 266.50-24.90L266.50-24.90L266.50-24.90Q266.50-12.10 259.10-5.05L259.10-5.05L259.10-5.05Q251.70 2 239.50 2L239.50 2L239.50 2Q229.40 1.80 220.50-1.80L220.50-1.80L220.50-68.60L212.20-69.40L212.20-69.40Q211.90-71.40 212.70-72.90L212.70-72.90L212.70-72.90Q219.40-73.90 226.00-75.60L226.00-75.60L226.00-75.60Q227.90-75.50 230.00-74.50ZM230.50-39.20L230.50-39.20L230.50-4.30L230.50-4.30Q234.90-2 240.50-2L240.50-2L240.50-2Q247.60-2 251.70-8.05L251.70-8.05L251.70-8.05Q255.80-14.10 255.80-24.90L255.80-24.90L255.80-24.90Q255.80-34.70 252.10-39.90L252.10-39.90L252.10-39.90Q248.40-45.10 242.50-45.10L242.50-45.10L242.50-45.10Q239.10-45.10 235.55-43.20L235.55-43.20L235.55-43.20Q232.00-41.30 230.50-39.20Z" fill="#ccc"></path></g></g><style>text {
  font-size: 64px;
  font-family: Arial Black;
  dominant-baseline: central;
  text-anchor: middle;
}</style></svg>